<svg width="28" height="28" viewBox="0 0 28 28" version="1.1" xmlns="http://www.w3.org/2000/svg" xmlns:xlink="http://www.w3.org/1999/xlink">
<g id="Canvas" fill="none"><g id="Group 3.1"><g id="Rectangle 2"><rect width="28" height="28" rx="2" fill="#007AFF"/></g><g id="H"><path d="M 0 1.76282L 0 0L 5.90978 0L 5.90978 1.76282L 4.38088 2.0633L 4.38088 6.27003L 10.2025 6.27003L 10.2025 2.0633L 8.67356 1.76282L 8.67356 0L 10.2025 0L 13.0544 0L 14.5833 0L 14.5833 1.76282L 13.0544 2.0633L 13.0544 12.53L 14.5833 12.8305L 14.5833 14.5833L 8.67356 14.5833L 8.67356 12.8305L 10.2025 12.53L 10.2025 8.52364L 4.38088 8.52364L 4.38088 12.53L 5.90978 12.8305L 5.90978 14.5833L 0 14.5833L 0 12.8305L 1.5191 12.53L 1.5191 2.0633L 0 1.76282Z" transform="translate(6.7085 6.70834)" fill="white"/></g></g></g>
</svg>

